<svg xmlns="http://www.w3.org/2000/svg" viewBox="0 0 449.95 118.47"><defs><style>.cls-1{fill:#003770;}</style></defs><g id="Lager_1" data-name="Lager 1"><path class="cls-1" d="M338.88,258.58a17.47,17.47,0,0,1-10-2.83,14.43,14.43,0,0,1-5.83-7.72l6.08-2.23a11.17,11.17,0,0,0,4,4.8,10.45,10.45,0,0,0,6,1.77,8.89,8.89,0,0,0,5.74-1.73,6.06,6.06,0,0,0,2.14-5,5.46,5.46,0,0,0-.59-2.51,7.3,7.3,0,0,0-1.34-1.89,8.84,8.84,0,0,0-2.29-1.52c-1-.52-1.89-.91-2.58-1.18s-1.68-.63-3-1.09c-1.66-.58-2.9-1-3.73-1.36a27,27,0,0,1-3.25-1.65,11.92,11.92,0,0,1-3-2.29,11.14,11.14,0,0,1-1.84-3,10.5,10.5,0,0,1-.8-4.16,10.35,10.35,0,0,1,3.72-8.06q3.72-3.3,10.11-3.29a15.13,15.13,0,0,1,8.78,2.36,11.41,11.41,0,0,1,4.63,6.26l-6,2a6.91,6.91,0,0,0-2.89-3.2,9.73,9.73,0,0,0-5.05-1.21,7.79,7.79,0,0,0-4.87,1.37,4.57,4.57,0,0,0-1.77,3.84,4,4,0,0,0,1.36,3,9.56,9.56,0,0,0,2.86,1.93q1.48.61,4.53,1.67l2.76,1c.6.23,1.48.61,2.64,1.15a19.07,19.07,0,0,1,2.66,1.46,21.33,21.33,0,0,1,2.17,1.77,9.36,9.36,0,0,1,1.9,2.26,13.07,13.07,0,0,1,1.11,2.79,12.89,12.89,0,0,1,.47,3.51,11.68,11.68,0,0,1-4.16,9.52A16.15,16.15,0,0,1,338.88,258.58Z" transform="translate(-189.05 -209.19)"/><path class="cls-1" d="M383.43,254.17q-3.92,4.41-10.61,4.41t-10.58-4.41q-3.89-4.39-3.88-12.16t3.88-12.19q3.87-4.44,10.58-4.44t10.61,4.44q3.9,4.44,3.91,12.19T383.43,254.17ZM370.06,220a3.91,3.91,0,0,1-6.67-2.76,3.9,3.9,0,0,1,6.67-2.76,3.89,3.89,0,0,1,0,5.52Zm2.76,32.48a7.07,7.07,0,0,0,5.89-2.79c1.45-1.87,2.17-4.43,2.17-7.7a12.36,12.36,0,0,0-2.17-7.72,7,7,0,0,0-5.89-2.83,7,7,0,0,0-5.83,2.83,12.36,12.36,0,0,0-2.18,7.72,12.23,12.23,0,0,0,2.18,7.66A7,7,0,0,0,372.82,252.5ZM381.23,220a3.91,3.91,0,0,1-6.67-2.76,3.91,3.91,0,1,1,6.67,2.76Z" transform="translate(-189.05 -209.19)"/><path class="cls-1" d="M393.25,257.83V216.08l6.45-3v44.79Z" transform="translate(-189.05 -209.19)"/><path class="cls-1" d="M415.72,257.83l-11.61-31.7h6.46l7.32,20.78c.45,1.37.74,2.3.87,2.8.12-.5.41-1.43.86-2.8l7.26-20.78h6.46l-11.61,31.7Z" transform="translate(-189.05 -209.19)"/><path class="cls-1" d="M449.24,258.58a13.26,13.26,0,0,1-10.52-4.44q-3.87-4.42-3.88-12.19t3.91-12.16a14.63,14.63,0,0,1,20.29-.62q3.85,3.78,3.85,11a27.45,27.45,0,0,1-.25,4.16H441.3a8.42,8.42,0,0,0,2.45,6.14,7.66,7.66,0,0,0,5.55,2.36,7.91,7.91,0,0,0,6.58-3.23L460.1,254Q456.24,258.58,449.24,258.58Zm-7.94-19.42h15.14c-.05-2.73-.77-4.76-2.18-6.08a7,7,0,0,0-5-2,7.91,7.91,0,0,0-5.49,2Q441.54,235,441.3,239.16Z" transform="translate(-189.05 -209.19)"/><path class="cls-1" d="M478.1,258.58a17.81,17.81,0,0,1-7-1.4,11.33,11.33,0,0,1-5-3.75l4.59-3.91a10.49,10.49,0,0,0,7.26,3.23c3.72,0,5.59-1.14,5.59-3.42a3,3,0,0,0-1.06-2.17,7.65,7.65,0,0,0-2.11-1.46c-.7-.31-1.84-.77-3.41-1.39a20.17,20.17,0,0,1-7.66-4.1,8,8,0,0,1-2.45-6.08,7.55,7.55,0,0,1,3.13-6.42,12.91,12.91,0,0,1,7.91-2.33q7.14,0,11.11,4.78l-4.66,3.72a8.54,8.54,0,0,0-6.45-2.66,6,6,0,0,0-3.26.77,2.43,2.43,0,0,0-1.21,2.14,2.68,2.68,0,0,0,1.46,2.33,30.5,30.5,0,0,0,4.68,2.14,21.14,21.14,0,0,1,7.92,4.22,8.62,8.62,0,0,1,2.51,6.51,8,8,0,0,1-3.2,6.86Q483.62,258.57,478.1,258.58Z" transform="translate(-189.05 -209.19)"/><path class="cls-1" d="M509.61,258.58a9.68,9.68,0,0,1-7.5-3.29v2.54h-6.46V216l6.46-3v15.51a9.61,9.61,0,0,1,7.5-3.17,11.72,11.72,0,0,1,9.53,4.44q3.63,4.44,3.63,12.13,0,8-3.51,12.28A11.72,11.72,0,0,1,509.61,258.58Zm-.8-6.08a6.33,6.33,0,0,0,5.55-2.83,13.38,13.38,0,0,0,1.95-7.72q0-5.08-1.92-7.79a6.42,6.42,0,0,0-5.58-2.7,7.72,7.72,0,0,0-4,1.09,7.61,7.61,0,0,0-2.66,2.51V248.9A7.37,7.37,0,0,0,508.81,252.5Z" transform="translate(-189.05 -209.19)"/><path class="cls-1" d="M552.2,254.17q-3.9,4.41-10.61,4.41T531,254.17q-3.87-4.39-3.88-12.16T531,229.82q3.88-4.44,10.58-4.44t10.61,4.44q3.91,4.44,3.91,12.19T552.2,254.17Zm-10.61-1.67a7.09,7.09,0,0,0,5.9-2.79,14.78,14.78,0,0,0,0-15.42,7.07,7.07,0,0,0-5.9-2.83,7,7,0,0,0-5.83,2.83,12.36,12.36,0,0,0-2.17,7.72,12.23,12.23,0,0,0,2.17,7.66A7,7,0,0,0,541.59,252.5Z" transform="translate(-189.05 -209.19)"/><path class="cls-1" d="M561.57,257.83v-31.7H568V230a7.26,7.26,0,0,1,7.07-4.6,7.93,7.93,0,0,1,5.34,1.93l-.93,5.95a8.83,8.83,0,0,0-5-1.55,6.15,6.15,0,0,0-4.53,2q-1.92,2-1.92,6.36v17.8Z" transform="translate(-189.05 -209.19)"/><path class="cls-1" d="M594.51,270.24l-3.22-5q6.57-.37,9.15-2.2a5.8,5.8,0,0,0,2.57-5v-2.79a9.25,9.25,0,0,1-7.63,3.29,11.76,11.76,0,0,1-9.37-4.31Q582.35,250,582.35,242q0-7.69,3.63-12.13a11.72,11.72,0,0,1,9.53-4.44,9.93,9.93,0,0,1,7.5,3v-2.23h6.46v29.66q0,7.32-3.66,10.61T594.51,270.24Zm2-17.74a7.09,7.09,0,0,0,6.45-3.73V235.06a7.83,7.83,0,0,0-6.45-3.6,6.72,6.72,0,0,0-5.77,2.7q-2,2.7-2,7.79a12.82,12.82,0,0,0,2.07,7.69A6.65,6.65,0,0,0,596.56,252.5Z" transform="translate(-189.05 -209.19)"/><path class="cls-1" d="M627.09,258.58a17.76,17.76,0,0,1-7-1.4,11.31,11.31,0,0,1-5-3.75l4.59-3.91a10.49,10.49,0,0,0,7.26,3.23q5.6,0,5.59-3.42a2.93,2.93,0,0,0-1.06-2.17,7.51,7.51,0,0,0-2.11-1.46c-.7-.31-1.84-.77-3.41-1.39a20.25,20.25,0,0,1-7.66-4.1,8,8,0,0,1-2.45-6.08,7.55,7.55,0,0,1,3.13-6.42,12.93,12.93,0,0,1,7.91-2.33q7.14,0,11.11,4.78l-4.66,3.72a8.54,8.54,0,0,0-6.45-2.66,6.07,6.07,0,0,0-3.26.77,2.43,2.43,0,0,0-1.21,2.14,2.68,2.68,0,0,0,1.46,2.33,30.71,30.71,0,0,0,4.69,2.14,21.08,21.08,0,0,1,7.91,4.22,8.62,8.62,0,0,1,2.51,6.51,8,8,0,0,1-3.19,6.86C633.67,257.78,630.77,258.58,627.09,258.58Z" transform="translate(-189.05 -209.19)"/><path class="cls-1" d="M352.22,315.06h-7.07l-9.37-18.24-4.1,4.1v14.14h-6.45V273.31l6.45-3v22.89l9.37-9.8H349l-8.68,8.81Z" transform="translate(-189.05 -209.19)"/><path class="cls-1" d="M378.75,311.4q-3.92,4.41-10.61,4.41t-10.58-4.41q-3.87-4.39-3.88-12.16t3.88-12.19q3.88-4.44,10.58-4.43t10.61,4.43q3.92,4.44,3.91,12.19T378.75,311.4Zm-10.61-1.67a7.06,7.06,0,0,0,5.89-2.79q2.18-2.79,2.18-7.7a12.36,12.36,0,0,0-2.18-7.72,7.5,7.5,0,0,0-11.72,0,14.73,14.73,0,0,0,0,15.39A7,7,0,0,0,368.14,309.73Z" transform="translate(-189.05 -209.19)"/><path class="cls-1" d="M425.66,315.06v-19q0-7.38-5.84-7.38a5.82,5.82,0,0,0-4.53,2,8.25,8.25,0,0,0-1.8,5.68v18.67H407v-19q0-7.38-5.83-7.38a5.82,5.82,0,0,0-4.53,2,8.25,8.25,0,0,0-1.8,5.68v18.67h-6.45v-31.7h6.45v2.92c1.7-2.44,4.36-3.66,8-3.66q5.89,0,8.44,4.52,2.93-4.51,9.37-4.52a11.57,11.57,0,0,1,8.29,3q3.12,3,3.13,9v20.47Z" transform="translate(-189.05 -209.19)"/><path class="cls-1" d="M476.31,315.06v-19q0-7.38-5.83-7.38a5.82,5.82,0,0,0-4.53,2,8.25,8.25,0,0,0-1.8,5.68v18.67H457.7v-19q0-7.38-5.84-7.38a5.82,5.82,0,0,0-4.53,2,8.25,8.25,0,0,0-1.8,5.68v18.67h-6.45v-31.7h6.45v2.92q2.55-3.66,8-3.66,5.9,0,8.44,4.52,2.91-4.51,9.37-4.52a11.54,11.54,0,0,1,8.28,3q3.14,3,3.13,9v20.47Z" transform="translate(-189.05 -209.19)"/><path class="cls-1" d="M509,315.06v-3a9.82,9.82,0,0,1-8.19,3.79q-11.42,0-11.41-13.53V283.36h6.45v18.92q0,3.8,1.74,5.62a6,6,0,0,0,4.59,1.83q6.82,0,6.82-7.32V283.36h6.46v31.7Z" transform="translate(-189.05 -209.19)"/><path class="cls-1" d="M542.18,315.06V296.14q0-3.78-1.74-5.61a6,6,0,0,0-4.59-1.83Q529,288.7,529,296v19h-6.45v-31.7H529v3a9.87,9.87,0,0,1,8.19-3.78q11.41,0,11.42,13.52v18.92Z" transform="translate(-189.05 -209.19)"/></g><g id="Lager_3" data-name="Lager 3"><path class="cls-1" d="M288.31,303.46V210.6a1.41,1.41,0,0,0-1.41-1.41H190.48a1.41,1.41,0,0,0-1.41,1.41v91.84s-.14,5,.56,6.73c2,4.76,8.23,5.89,8.23,5.89l32.46,7.11a13.62,13.62,0,0,1,7.44,5,1.4,1.4,0,0,0,2.2,0c3.55-4.52,7.67-5.13,7.67-5.13l33.66-7.49a12,12,0,0,0,4.95-3.09c2.62-2.52,2.07-8,2.07-8M249.7,228.74c.4-2.71,1.6-4.57,5.11-6.57,3-1.72,7.18-2.31,10.54-2.56a26.48,26.48,0,0,1,10.4,1.3c.86.31,1.74.59,2.54.83a1.41,1.41,0,0,1,.14,2.64,20.19,20.19,0,0,1-8.76,1.15c-8.93-.46-12.36,1.48-13.35,2.79-1.34,1.76-1.07,3.54,0,4.6.73.71,2,2.49,8.78,1.14s10-2.07,13.71.3a9.17,9.17,0,0,1,4,9.44,8.85,8.85,0,0,1-4.66,6.17c-2.84,1.5-5.63,1.75-11.64.66-7.06-1.3-11.45-1.26-16,.67,0,0-.63.13,1.06-1.78s3.77-2.86,7.58-3,8,1.24,12.95.4,6.83-4.43,4.67-7.12-8.43-1.4-9.75-1.11a43.42,43.42,0,0,1-9.07.9,9.69,9.69,0,0,1-6.58-3.36c-2-2.2-2-5.33-1.7-7.48m-50.09,5c3.46-2.37,8.33-1,14.7.34s7.35-.1,8-.81c1-1.05,1.27-2.83,0-4.6-.92-1.3-4.31-3.64-12.71-3.17a21.15,21.15,0,0,1-7.35-.69,1.41,1.41,0,0,1,0-2.7c.63-.18,1.28-.39,1.92-.62a26.11,26.11,0,0,1,9.63-1.53c3.16.21,6.5.42,9.21,2.37s4.69,4.94,4.94,7.09.26,4.7-1.6,6.9a11.65,11.65,0,0,1-6.64,4,25.08,25.08,0,0,1-7.6-.71c-1.22-.3-9.13-2.7-11.16,0s.17,6.42,4.87,7.26,10.26-1,13.81-.45,5.91,1.34,7.26,3.46.85,1.81.85,1.81c-3.68-1.52-8.53-2.09-15.17-.81-5.66,1.1-8.15.73-11-.37a10.16,10.16,0,0,1-6.26-6.76c-1.07-3.78.76-7.6,4.23-10m1.67,49.65c2.61,3.5,9.68,1.72,10.93,1.54,1.9-.27,5.2-.95,7.9-.6a9.12,9.12,0,0,1,6.09,3.9,10.85,10.85,0,0,1,1.44,7.72c-.37,2.92-1.81,4.33-4.51,6.27s-6.55,2.72-9.72,2.93-8.66-.12-11.19-.93a23.91,23.91,0,0,1-2.24-.84,1.41,1.41,0,0,1,.19-2.65h0a31.24,31.24,0,0,1,10.28-1.25c6.5.28,9.24-1.59,10.17-2.89a4,4,0,0,0,.19-4.93c-.56-.92-1.76-2.92-8.14-1.57s-10.2,2.23-13.66-.14a9.42,9.42,0,0,1-3.77-9.81c.88-3.44,3.53-5.11,6.36-6.21,2.42-.94,6.86-.9,11-.38,6.69.82,11.38,1.23,15.06-.28,0,0,.69,0-.6,1.53-1.66,1.89-3.75,2.57-7.4,3s-9.43-1-14.22-.93-6.16,3.84-4.14,6.55M258.08,297c1.18,1.13,3.3,2.36,9.81,2.26a29.64,29.64,0,0,1,8,.67,10.85,10.85,0,0,1,2.54.81,1.41,1.41,0,0,1,0,2.56,9.72,9.72,0,0,1-3.63.77c-2.8.09-6.74,1.19-9.92,1s-6.91-.84-9.62-2.78-4.36-3.76-4.73-6.69c-.27-2.16-.47-5,1.31-7.57a10,10,0,0,1,6.41-3.9,19.11,19.11,0,0,1,8,.43c1.56.44,9.13,2.44,11.48-1.22s-1-6.45-6.27-6.55c-4.77-.08-9.17,1.74-12.88,1.31s-5.58-1.61-7.22-3.5c-1.29-1.49-.59-1.54-.59-1.54,3.66,1.52,8.48,2.13,15.14.66,4.06-.9,9.37-1.12,12.06.39s4.07,2.38,5,5.81c.73,2.78-.74,7.67-3.47,9.67-3.38,2.48-7.31,1.61-13.77.78s-8.16.4-8.89,1.22c-1.25,1.43-1.17,3,1.32,5.43m23.56-29.52H245.8a2.62,2.62,0,0,0-2.61,2.59l-.14,36.3a1.41,1.41,0,0,1-1.41,1.4h-5.91a1.42,1.42,0,0,1-1.41-1.4l-.14-36.73a2.17,2.17,0,0,0-2.17-2.16H196.4A1.41,1.41,0,0,1,195,266v-4.6A1.41,1.41,0,0,1,196.4,260h35.9a1.81,1.81,0,0,0,1.81-1.79l.29-37.3a1.41,1.41,0,0,1,1.41-1.4h5.9a1.41,1.41,0,0,1,1.41,1.41v36a3,3,0,0,0,3,3l35.54.28a1.4,1.4,0,0,1,1.4,1.4l0,4.45A1.4,1.4,0,0,1,281.64,267.44Z" transform="translate(-189.05 -209.19)"/></g></svg>