<?xml version="1.0" encoding="utf-8"?>
<!-- Generator: Adobe Illustrator 22.0.1, SVG Export Plug-In . SVG Version: 6.00 Build 0)  -->
<svg version="1.1" id="Layer_1" xmlns="http://www.w3.org/2000/svg" xmlns:xlink="http://www.w3.org/1999/xlink" x="0px" y="0px"
	 viewBox="0 0 227.3 283" style="enable-background:new 0 0 227.3 283;" xml:space="preserve">
<style>
	.st0{fill:#FFFFFF;}
	.st1{clip-path:url(#SVGID_2_);fill-rule:evenodd;clip-rule:evenodd;fill:#0061AC;}
	.st2{fill-rule:evenodd;clip-rule:evenodd;fill:#0061AC;}
	.st3{fill:#DFE4E0;}
	.st4{fill:#0061AC;}
	.st5{clip-path:url(#SVGID_4_);fill:#0061AC;}
	.st6{clip-path:url(#SVGID_4_);fill:#FFDC00;}
	.st7{fill:#ED7225;}
	.st8{fill:#FFDC00;}
	.st9{clip-path:url(#SVGID_6_);fill:#0061AC;}
	.st10{clip-path:url(#SVGID_6_);fill:#66B2E3;}
	.st11{clip-path:url(#SVGID_6_);fill:#008377;}
	.st12{clip-path:url(#SVGID_6_);fill:#FFDC00;}
	.st13{clip-path:url(#SVGID_8_);fill:#ED7225;}
	.st14{clip-path:url(#SVGID_8_);fill:#008377;}
	.st15{clip-path:url(#SVGID_8_);fill:#FFDC00;}
	.st16{fill:#F59F00;}
	.st17{fill:#F59F00;stroke:#F59F00;stroke-width:2.2427;stroke-linecap:round;stroke-linejoin:round;}
	.st18{fill:#F59F00;stroke:#F59F00;stroke-width:2.9902;stroke-linecap:round;stroke-linejoin:round;}
	.st19{fill:#0061AC;stroke:#0061AC;stroke-width:0.7476;}
	.st20{clip-path:url(#SVGID_10_);fill:#FFFFFF;}
</style>
<g>
	<rect class="st0" width="227.3" height="283"/>
	<g>
		<polygon class="st0" points="17.8,19.7 209.5,19.7 209.5,263.3 17.8,263.3 17.8,19.7 		"/>
		<g>
			<defs>
				<polygon id="SVGID_1_" points="17.8,19.7 209.5,19.7 209.5,263.3 17.8,263.3 17.8,19.7 				"/>
			</defs>
			<clipPath id="SVGID_2_">
				<use xlink:href="#SVGID_1_"  style="overflow:visible;"/>
			</clipPath>
			<path class="st1" d="M186,132.6c-12.4-1.1-16.7,3.1-26.9,5.6l0,5l-120.5,0.3l-0.1-9.9c-13.4,1.1-21.7,6.9-21.7,6.9L16.5,230
				l193.2-0.1v-90.6C209.7,139.3,199.4,133.8,186,132.6C186,132.6,199.4,133.8,186,132.6L186,132.6z"/>
		</g>
		<path class="st2" d="M46.9,133.6c18.3,1.3,15.6,5.3,29.9,6c14.3,0.7,19.3-6.9,36.3-6.9c15.2,0,21.8,8.1,37.6,6.9
			c3.3-0.3,6-0.7,8.4-1.3l-0.3-18.6l-4.1-8.4l-12.8-0.2l-4.7,10.1l0.1-25.8l-4.8,0v-7.8l-11.2-0.1l-0.2,7.5l-4.9-0.1l-0.2,17
			l-6.4,0.2l-0.1-6.2l-4.9,0l-0.4,6.1l-4.6,0.3l-1.9-22.7h-3.3l-0.2,5l-4.3,0l0.1-5.3h-3.7l-1.4,14.9l-3.6,0.1l-0.1-11.5
			c0,0,0.4-2.7-1.1-6c-1.5-3.2-4.8-4.4-4.8-4.4v-7.6L72.9,69L71,68.9l-4,5.8v7.8c0,0-2.3,0.4-4.5,2.9c-2.3,2.5-2.3,8.3-2.3,8.3
			l0.1,11.3l-5.1,0.2l-0.1,16.7l-3.5-0.2l-0.1-4.8l-4.2-0.1l-0.1,4.7l-8.5,0.5l-0.4,10.5l0,1.3C41.1,133.4,43.9,133.4,46.9,133.6
			C46.9,133.6,43.9,133.4,46.9,133.6L46.9,133.6z"/>
		<path class="st3" d="M159.1,138.2c-2.4,0.6-5.2,1.1-8.4,1.3c-15.7,1.2-22.4-6.9-37.6-6.9c-17,0-21.9,7.5-36.3,6.9
			c-14.3-0.7-11.6-4.6-29.9-6c-3-0.2-5.8-0.2-8.4,0l0.1,9.9l120.7,0L159.1,138.2L159.1,138.2z"/>
		<path class="st4" d="M71.6,55.4c0,0-0.7,3.9-1.6,5.2c-0.9,1.2-2.9,3.2-2.6,6.6c0.2,2.8,4.1,4.6,5,4.1c0.4-0.2,2.7-1.5,3-4.6
			c0.3-3.1-1.2-3.1-2.3-6C72.2,58.7,71.6,55.4,71.6,55.4L71.6,55.4L71.6,55.4z"/>
		<g>
			<defs>
				<polygon id="SVGID_3_" points="17.8,19.7 209.5,19.7 209.5,263.3 17.8,263.3 17.8,19.7 				"/>
			</defs>
			<clipPath id="SVGID_4_">
				<use xlink:href="#SVGID_3_"  style="overflow:visible;"/>
			</clipPath>
			<path class="st5" d="M123.8,89l0-3.1c0,0,0.2-3.6,2.8-3.6c2.6,0,2.9,3.5,2.9,3.5l0,3.2L123.8,89L123.8,89L123.8,89z"/>
			<polygon class="st6" points="96.3,16.4 97.4,75.9 210.7,76.3 211,17 96.3,16.4 96.3,16.4 			"/>
		</g>
		<path class="st7" d="M171.5,41.4c0-9.5,7.9-17.3,17.7-17.3S207,31.8,207,41.4c0,9.5-7.9,17.3-17.7,17.3S171.5,50.9,171.5,41.4
			L171.5,41.4z"/>
		<path class="st8" d="M127.4,200.8c13.7,0,18.5,6.6,18.5,7.7c0,1.3-5.4,8.4-18.8,8.4c-11.5,0-29.9-19.1-29.9-19.1l-0.1,19.8
			C97.1,217.7,114.9,200.8,127.4,200.8C127.4,200.8,114.9,200.8,127.4,200.8L127.4,200.8z"/>
		<g>
			<defs>
				<polygon id="SVGID_5_" points="17.8,19.7 209.5,19.7 209.5,263.3 17.8,263.3 17.8,19.7 				"/>
			</defs>
			<clipPath id="SVGID_6_">
				<use xlink:href="#SVGID_5_"  style="overflow:visible;"/>
			</clipPath>
			<path class="st9" d="M136.9,210c1.2,0,2.1-0.8,2.1-1.8c0-1-0.9-1.8-2.1-1.8c-1.2,0-2.1,0.8-2.1,1.8
				C134.8,209.2,135.7,210,136.9,210C136.9,210,135.7,210,136.9,210L136.9,210z"/>
			<path class="st10" d="M97,158.4c0,0,5.8-8.9,22.9-7.4c17.1,1.5,20.9,16.3,36.1,14.8c15.1-1.5,16.4-14.2,34.8-13.6
				c18.4,0.6,25.8,13.9,34.5,14.5l-0.1,8.6c-9-0.9-18.6-13.4-33.4-14.3c-14.8-0.9-15.5,16.3-37.7,13.6
				c-22.2-2.7-21.6-15.1-34.8-15.1c-13.2,0-22.9,12-22.9,12L97,158.4L97,158.4L97,158.4z"/>
			<path class="st10" d="M96.6,179.2c0,0,6.4-9.4,23.5-7.9c17.1,1.5,20.9,16.3,36.1,14.8c15.1-1.5,16.4-14.2,34.8-13.6
				c18.4,0.6,25.8,13.9,34.5,14.5l-0.1,8.6c-9-0.9-18.6-13.4-33.4-14.3c-14.8-0.9-15.5,16.3-37.7,13.6
				c-22.2-2.7-21.6-15.1-34.8-15.1c-13.2,0-23.5,12.4-23.5,12.4L96.6,179.2L96.6,179.2L96.6,179.2z"/>
			<path class="st11" d="M164.5,127.9c0,0,30.2,4.1,53.3-15.9C240.9,92.2,242,62,242,62s-33.3-3.1-55.8,15.9
				C166,95.1,164.5,127.9,164.5,127.9L164.5,127.9L164.5,127.9z"/>
			<path class="st12" d="M234.1,70.8c0,0-10.5-3.8-13.2-1c-2.7,2.8,8.1,6.4,3.9,9c-4.2,2.5-15.6-7.9-19.9-5
				c-4.3,2.9,9.5,9.3,4.2,12.5c-5.3,3.1-16.1-11.8-19.5-5.3c-2.4,4.7,14.9,6.4,11.4,10.5c-3.5,4.2-17.1-6.9-18.6-1.5
				c-1.4,5.4,11.4,5.9,9.7,9.9c-1.7,3.9-15.9-6.7-16.9,2c-0.8,7.4,15.2,2.2,12.3,7.5c-2.8,5.3-17.4-2.8-16.7,4
				c0.6,5.7,8.4-0.1,10.8,2.4c1.4,1.4-4.2,6.6-1.5,7.4c6.7,2,4.8-8.6,9.3-10.2c4.5-1.6-0.6,7.7,4.6,6.5c5.2-1.2-1.7-13.2,3.7-16
				c6.2-3.3-0.4,16.4,6.5,13.1c6.9-3.4-2.9-20.5,2.6-20.8c5.5-0.3,3.9,11.9,8,12.2c4,0.3-2.2-14.1,1.3-17.7c3.4-3.6,7.8,2,11.6,0.8
				c3.8-1.1-3.9-11.7,0.9-12.6c4.8-0.9,8.8,2,10.6,1.5C241.1,79.3,234.1,70.8,234.1,70.8L234.1,70.8L234.1,70.8z"/>
		</g>
		<path class="st7" d="M167.8,33.5l-27.7-9.2l-32.1,4.3l-29.9-3.1l-13.3,2.7c0,0-6.6,7.5-3.9,11.6c2.7,4.1,6.6,2.9,7.8,3.2
			c1.2,0.3,14.4-5.3,14.4-5.3l26.1,2.4c0,0,28.7-5.9,29.6-5.9C139.9,34.2,167.8,33.5,167.8,33.5L167.8,33.5L167.8,33.5z"/>
		<g>
			<defs>
				<polygon id="SVGID_7_" points="17.8,19.7 209.5,19.7 209.5,263.3 17.8,263.3 17.8,19.7 				"/>
			</defs>
			<clipPath id="SVGID_8_">
				<use xlink:href="#SVGID_7_"  style="overflow:visible;"/>
			</clipPath>
			<path class="st13" d="M169,42.9l-21.6-3.4l-23.1,5.2l-26.2,0.9l-14.5,2.5c0,0-8.1,6.2-3.7,11.8c2.8,3.5,8.6,3.9,8.6,3.9l13.3-7.4
				l30.9-2.8l17.6-7.7L169,42.9L169,42.9L169,42.9z"/>
			<path class="st14" d="M17.4,17H41c0,0,16.7,10.9,16.2,32.4c-0.5,20.4-12,22.9-10.4,34.7c1.6,11.8,4.9,17.3,0.7,23.9
				c-8.6,13.6-29.8,17.3-29.8,17.3L17.4,17L17.4,17L17.4,17z"/>
			<path class="st15" d="M16.9,33.7c0,0,7.3-15.4,16-9.8c8.6,5.5-10.4,10.8-7.7,16.8c2.3,5.1,16.2-9.9,19.2-3.6
				c2.9,6.2-17.5,10-15.4,14.6c2.1,4.6,20.2-10.7,22.5-1.3c4,16.6-29.7,0.1-25.2,10c2,4.4,21.7,3.1,19.5,9
				c-3.9,10.6-16-3.8-17.4,1.8C26,80.1,48.1,83.2,42.8,90.4c-7.9,10.8-15.1-23.4-21.7-8.9C19.5,85,35.5,94.3,31.9,101
				c-4.2,7.8-15.6-4-15.6-4L16.9,33.7L16.9,33.7L16.9,33.7z"/>
		</g>
		<polygon class="st0" points="169.9,171.1 169.9,232.4 205.5,231.9 169.9,171.1 169.9,171.1 		"/>
		<polygon class="st0" points="165.5,191.3 165.5,231.5 144.7,232.1 165.5,191.3 165.5,191.3 		"/>
		<path class="st7" d="M170.3,51.9l-18,3.1l-10.2,6.6l-16.9,1.5c0,0-8.2,3.1-4,7.5c4.2,4.4,11,2.9,11,2.9l16-4.8l9.7-9.7L170.3,51.9
			L170.3,51.9L170.3,51.9z"/>
		<path class="st16" d="M48.9,162.1c3.3-0.2,5.7-3.7,5.4-7.7c-0.3-4.1-3.2-7.2-6.5-7c-3.3,0.2-5.7,3.7-5.4,7.7
			C42.7,159.1,45.6,162.3,48.9,162.1C48.9,162.1,45.6,162.3,48.9,162.1L48.9,162.1z"/>
		<path class="st16" d="M68.7,167.5c3.2,0.4,6.2-2.3,6.7-6c0.5-3.7-1.6-7.1-4.8-7.5c-3.2-0.4-6.2,2.3-6.7,6
			C63.3,163.7,65.5,167.1,68.7,167.5C68.7,167.5,65.5,167.1,68.7,167.5L68.7,167.5z"/>
		<polygon class="st4" points="94.4,148.9 97.4,148.9 97.4,222.5 94.4,222.5 94.4,148.9 		"/>
		<polygon class="st16" points="43.6,166 45.7,155.6 50.4,155.7 50.4,166.1 43.6,166 43.6,166 		"/>
		<polygon class="st16" points="66.7,165.1 66.9,171.1 75.1,171.6 71,165.1 66.7,165.1 66.7,165.1 		"/>
		<path class="st17" d="M59.9,173.6c0,0-0.3-5-1.6-6.2c-0.5-0.5-1.5-1-2.4-1.3c-2.8-0.8-7.2-1.7-10.2-2c-5-0.4-13.1,0.8-13.1,0.8
			l-7.7,18.9l9.4,7.3l-1.6,19.5l0,18.8l10.9,0.3l4.9-26.2l4.6,26.2h10.2L59.9,173.6L59.9,173.6L59.9,173.6z"/>
		<path class="st18" d="M58.1,172.8c0,0,5.9-2.1,11.3-2.8c5.4-0.7,13.8,0,13.8,0l8,15l-9.5,10l6.7,21.2l-6.6,1l1.5,12.9H63
			L58.1,172.8L58.1,172.8L58.1,172.8z"/>
		<path class="st4" d="M63.7,196.8c2.3-0.3,3.9-2.9,3.5-5.9c-0.4-2.9-2.6-5-4.9-4.7c-2.3,0.3-3.9,2.9-3.5,5.9
			C59.2,195,61.4,197.1,63.7,196.8C63.7,196.8,61.4,197.1,63.7,196.8L63.7,196.8z"/>
		<path class="st19" d="M68.4,198.3l-9.8-0.2l-11.8-7.9c0,0-1.5-0.7-2.9,1.2c-1.1,1.6-0.4,2.9-0.4,2.9l12,10.9l-1.6,24.8l6.7,0.1
			l4.1-14.2l2.9,14.3H76l-2.4-14.7l-1.5-9.8L84.3,194c0,0-0.4-1.6-1.6-2.7c-1.5-1.5-2.9-1.3-2.9-1.3L68.4,198.3L68.4,198.3
			L68.4,198.3z"/>
		<polygon class="st4" points="61.4,195 61.4,198.7 66,198.8 64.8,195.5 61.4,195 61.4,195 		"/>
		<g>
			<defs>
				<polygon id="SVGID_9_" points="17.8,19.7 209.5,19.7 209.5,263.3 17.8,263.3 17.8,19.7 				"/>
			</defs>
			<clipPath id="SVGID_10_">
				<use xlink:href="#SVGID_9_"  style="overflow:visible;"/>
			</clipPath>
			<polygon class="st20" points="11.4,229.5 212.6,229.5 212.6,233.9 11.4,233.9 11.4,229.5 			"/>
		</g>
		<path class="st4" d="M109.3,236.4c0,0-4.5-2.3-7.6-1.7c-4,0.9-5.5,4.2-5,7.7c0.8,5.7,9.5,6.5,9.5,6.5l-0.1,5.7
			c0,0-1.9,0.7-3.7,0.2c-2.2-0.6-4.8-3-4.8-3l-1.2,3.2c0,0,3.9,3.8,8.1,4c3.4,0.2,6.7-3.4,6.7-7c0-4.8-2.5-5.7-3.4-6.6l-6.5-0.7
			l-0.3-6.4l8,0L109.3,236.4L109.3,236.4L109.3,236.4z"/>
		<polygon class="st4" points="20.4,233.6 19.8,258.3 24.4,258.3 23.3,247.3 31.7,257.7 36.7,258 26,245.5 37.7,235 31.7,233.5 
			24.8,241.6 24.8,233.3 20.4,233.6 20.4,233.6 		"/>
		<polygon class="st4" points="37.6,258.6 48.6,234.7 61.4,258.6 56.4,258.3 48,244.6 42,258.6 37.6,258.6 37.6,258.6 		"/>
		<polygon class="st4" points="133.2,258.6 144.2,234.7 157,258.6 151.9,258.3 144.1,245.2 137.7,258.8 133.2,258.6 133.2,258.6 		
			"/>
		<path class="st4" d="M62.9,235.6l-0.3,22.9l3.6,0l0.1-10.1l7.7,10.1l4.5-0.3l-8-9.5c0,0,8.6,1.5,8.3-7.4
			C78.4,232.4,62.9,235.6,62.9,235.6L62.9,235.6L62.9,235.6z"/>
		<polygon class="st4" points="82.6,234.2 82.6,258.9 94.5,259.2 94.2,254.7 87.4,254.7 87.1,234.5 82.6,234.2 82.6,234.2 		"/>
		<polygon class="st4" points="114.4,235.3 114.3,259.4 118.4,259.6 118.8,248.1 127.5,248.1 127.5,258.6 131.4,258.3 131.3,234.6 
			128.1,234.6 126.9,245.2 118.9,244.9 118.6,235.3 114.4,235.3 114.4,235.3 		"/>
		<path class="st4" d="M159.4,258.6l0.3-22.3h4.5l7.4,16.4l6.5-16.4l4.5-0.3l1.5,22c0,0-3.6,0.9-3.6,0c0-0.9-1.2-14.9-1.2-14.9
			l-5.7,14.3h-4.2l-6.5-13.7l0.9,14.6L159.4,258.6L159.4,258.6L159.4,258.6z"/>
		<polygon class="st4" points="188.9,258.6 189.2,236.5 192.1,236.5 201.9,252 202,235.7 207.3,235.3 207.3,259.2 203.8,259.2 
			193.3,244.3 192.4,258.6 188.9,258.6 188.9,258.6 		"/>
		<polygon class="st0" points="67.4,238.5 74.2,238.5 74.2,244.5 67.4,244.5 67.4,238.5 		"/>
		<polygon class="st4" points="43,251.6 55.8,251.6 55.8,254 43,254 43,251.6 		"/>
		<polygon class="st4" points="140.1,251.6 150.1,251.6 150.1,254 140.1,254 140.1,251.6 		"/>
	</g>
</g>
</svg>
